<svg width="25" height="27" viewBox="0 0 25 27" fill="none" xmlns="http://www.w3.org/2000/svg">
<path d="M2.21992 18.3784C-0.476324 13.2963 0.961512 6.9957 5.60063 3.58998C10.3222 0.126399 16.8973 0.72846 20.9095 5.00863C24.6879 9.04013 25.0672 15.1457 21.9329 19.603L21.7544 19.8485L21.671 19.9634L21.6791 20.1048L21.9623 25.4789L21.9619 25.5086L21.9619 25.5304L21.9572 25.5563L21.9594 25.5825L21.9552 25.6056L21.9544 25.6322L21.9502 25.6553L21.9466 25.6695L21.9411 25.6894L21.9369 25.7124L21.935 25.7171L21.9296 25.7359L21.9282 25.7386L21.9208 25.7572L21.917 25.7674L21.913 25.7786L21.9071 25.7944L21.9001 25.811L21.8985 25.8147L21.8784 25.8487L21.8667 25.8694L21.8618 25.8804L21.856 25.8903L21.8515 25.8984L21.833 25.9239L21.828 25.9299L21.8227 25.9369L21.8134 25.9501L21.8083 25.9561L21.7992 25.9683L21.7881 25.9802L21.7832 25.9853L21.7781 25.9913L21.7519 26.0213L21.7402 26.0311L21.736 26.0323L21.6672 26.0943L21.631 26.1185L21.6185 26.1271L21.607 26.136L21.6034 26.1393L21.5253 26.1817L21.5207 26.1848L21.4468 26.2151L21.4371 26.2193L21.435 26.2199L21.3308 26.2526L21.3235 26.2543L21.3111 26.257L21.3079 26.2584L21.2938 26.2598L21.2766 26.2617L21.26 26.2656L21.2371 26.2714L21.2271 26.2716L21.2076 26.275L21.1443 26.2794L21.1263 26.2801L21.1223 26.2803L21.1043 26.2811L21.0913 26.2817L21.0737 26.2805L21.0599 26.2799L21.024 26.2804L21.0067 26.2773L20.9649 26.2726L20.9559 26.273L20.91 26.2687L20.8912 26.2633L20.8616 26.2569L20.8596 26.2565L20.8099 26.2465L20.8006 26.2429L20.7734 26.234L20.7619 26.2319L20.7536 26.2284L20.7407 26.2231L20.7276 26.2187L20.6993 26.2106L20.6921 26.2063L20.6836 26.2038L20.6763 26.2005L20.6632 26.1961L20.6075 26.1692L20.5967 26.1632L20.5855 26.1592L16.3259 23.9906L16.1788 23.9153L16.0217 23.9662L15.9689 23.9834L15.9687 23.9844C10.7681 25.643 5.09417 23.4368 2.3869 18.6836L2.38804 18.6828L2.21992 18.3784Z" fill="#3BBC44" stroke="white" stroke-width="0.8"/>
</svg>
