<svg width="24" height="25" viewBox="0 0 24 25" fill="none" xmlns="http://www.w3.org/2000/svg">
<path d="M4.8291 3.83582C9.34871 0.276258 15.8048 0.567106 19.9834 4.52429C24.2337 8.55232 24.8142 15.1293 21.3184 19.8407C18.0255 24.2776 12.0856 25.7399 7.14062 23.451L6.86719 23.3192L6.73926 23.2577L6.60156 23.2909L1.36426 24.5282L1.33496 24.5331L1.31348 24.537H1.28711L1.26172 24.5438H1.23828L1.21191 24.5477H1.18848L1.17383 24.5468L1.15332 24.5448H1.12988L1.125 24.5438L1.10547 24.5419L1.10254 24.5409L1.08301 24.537L1.07227 24.535L1.06055 24.5331L1.04395 24.5302L1.02637 24.5262L1.02246 24.5253L0.985352 24.5116L0.962891 24.5038L0.951172 24.5009L0.94043 24.4969L0.931641 24.494L0.90332 24.4803L0.896484 24.4764L0.888672 24.4725L0.874023 24.4657L0.867188 24.4618L0.853516 24.455L0.839844 24.4462L0.833984 24.4423L0.827148 24.4384L0.792969 24.4178L0.78125 24.4081L0.779297 24.4042L0.706055 24.3475L0.675781 24.3163L0.665039 24.3055L0.654297 24.2958L0.650391 24.2928L0.594727 24.2235L0.59082 24.2196L0.547852 24.1522L0.541992 24.1434L0.541016 24.1415L0.490234 24.0448L0.487305 24.038L0.482422 24.0262L0.480469 24.0233L0.476562 24.0096L0.47168 23.993L0.464844 23.9774L0.455078 23.9559L0.453125 23.9462L0.446289 23.9276L0.430664 23.8661L0.426758 23.8485L0.425781 23.8446L0.421875 23.827L0.418945 23.8143L0.416992 23.7968L0.415039 23.7831L0.408203 23.7479V23.7303L0.405273 23.6884L0.40332 23.6796L0.399414 23.6337L0.401367 23.6141L0.402344 23.5839V23.5819L0.40332 23.5311L0.405273 23.5214L0.40918 23.493V23.4813L0.411133 23.4725L0.414062 23.4589L0.416016 23.4452L0.418945 23.4159L0.421875 23.4081L0.422852 23.3993L0.424805 23.3915L0.426758 23.3778L0.443359 23.3182L0.447266 23.3065L0.449219 23.2948L1.82324 18.7167L1.87109 18.5585L1.79297 18.413L1.7666 18.3641H1.76562C-0.794101 13.5427 0.364579 7.5663 4.55859 4.05457L4.55957 4.05554L4.8291 3.83582Z" fill="#3BBC44" stroke="white" stroke-width="0.8"/>
</svg>
