<svg width="20" height="21" viewBox="0 0 20 21" fill="none" xmlns="http://www.w3.org/2000/svg">
<path d="M9.99829 2.19908C9.40903 2.19908 8.8439 2.46246 8.42722 2.9313C8.01055 3.40013 7.77647 4.036 7.77647 4.69903C7.77647 5.36206 8.01055 5.99794 8.42722 6.46677C8.8439 6.9356 9.40903 7.19899 9.99829 7.19899C10.5876 7.19899 11.1527 6.9356 11.5694 6.46677C11.986 5.99794 12.2201 5.36206 12.2201 4.69903C12.2201 4.036 11.986 3.40013 11.5694 2.9313C11.1527 2.46246 10.5876 2.19908 9.99829 2.19908ZM6.66555 4.69903C6.66555 3.70449 7.01668 2.75068 7.64169 2.04743C8.2667 1.34418 9.1144 0.949097 9.99829 0.949097C10.8822 0.949097 11.7299 1.34418 12.3549 2.04743C12.9799 2.75068 13.331 3.70449 13.331 4.69903C13.331 5.69358 12.9799 6.64739 12.3549 7.35064C11.7299 8.05389 10.8822 8.44897 9.99829 8.44897C9.1144 8.44897 8.2667 8.05389 7.64169 7.35064C7.01668 6.64739 6.66555 5.69358 6.66555 4.69903ZM4.5026 10.9439C4.46483 11.1473 4.44594 11.3573 4.44594 11.5739V12.2552L1.52313 13.1364C1.38083 13.1792 1.25947 13.2838 1.18572 13.4273C1.11197 13.5707 1.09188 13.7413 1.12987 13.9014L1.84863 16.9201C2.05951 17.8041 2.55049 18.5709 3.22904 19.0758C3.9076 19.5808 4.72686 19.789 5.53242 19.6613C5.78793 20.0488 6.08232 20.4038 6.40893 20.715L6.21896 20.7775C5.65525 20.9477 5.06728 20.9912 4.48862 20.9056C3.90996 20.82 3.35195 20.607 2.84645 20.2788C2.34096 19.9505 1.8979 19.5134 1.54255 18.9925C1.18721 18.4715 0.926561 17.8769 0.775484 17.2426L0.0567224 14.2239C0.000110833 13.986 -0.0143082 13.738 0.0142888 13.4938C0.0428858 13.2497 0.113939 13.0143 0.22339 12.8011C0.332842 12.5879 0.478548 12.401 0.65219 12.2511C0.825832 12.1013 1.02401 11.9913 1.2354 11.9277L4.5026 10.9439ZM15.5551 12.2552V11.5739C15.5543 11.3573 15.5358 11.1473 15.4995 10.9439L18.7656 11.9289C19.1924 12.0578 19.5561 12.3721 19.7769 12.8027C19.9978 13.2333 20.0576 13.7449 19.9432 14.2251L19.2244 17.2438C19.069 17.8961 18.7978 18.5062 18.4271 19.0373C18.0564 19.5684 17.594 20.0095 17.0676 20.334C16.5413 20.6585 15.962 20.8597 15.3646 20.9254C14.7673 20.9911 14.1643 20.9199 13.5921 20.7163C13.9202 20.4029 14.2124 20.0517 14.4686 19.6625C15.2742 19.7899 16.0933 19.5813 16.7716 19.0761C17.4499 18.571 17.9407 17.8041 18.1513 16.9201L18.8712 13.9014C18.9092 13.7413 18.8891 13.5707 18.8153 13.4273C18.7416 13.2838 18.6202 13.1792 18.4779 13.1364L15.5551 12.2552ZM15.5529 6.574C15.5529 6.07673 15.7284 5.59982 16.0409 5.2482C16.3534 4.89657 16.7773 4.69903 17.2192 4.69903C17.6612 4.69903 18.085 4.89657 18.3975 5.2482C18.71 5.59982 18.8856 6.07673 18.8856 6.574C18.8856 7.07127 18.71 7.54818 18.3975 7.89981C18.085 8.25143 17.6612 8.44897 17.2192 8.44897C16.7773 8.44897 16.3534 8.25143 16.0409 7.89981C15.7284 7.54818 15.5529 7.07127 15.5529 6.574ZM17.2192 3.44905C16.4827 3.44905 15.7762 3.77829 15.2554 4.36433C14.7346 4.95037 14.442 5.74521 14.442 6.574C14.442 7.40279 14.7346 8.19763 15.2554 8.78367C15.7762 9.36972 16.4827 9.69895 17.2192 9.69895C17.9558 9.69895 18.6622 9.36972 19.1831 8.78367C19.7039 8.19763 19.9965 7.40279 19.9965 6.574C19.9965 5.74521 19.7039 4.95037 19.1831 4.36433C18.6622 3.77829 17.9558 3.44905 17.2192 3.44905ZM2.77735 4.69903C2.3354 4.69903 1.91155 4.89657 1.59905 5.2482C1.28654 5.59982 1.11098 6.07673 1.11098 6.574C1.11098 7.07127 1.28654 7.54818 1.59905 7.89981C1.91155 8.25143 2.3354 8.44897 2.77735 8.44897C3.2193 8.44897 3.64315 8.25143 3.95565 7.89981C4.26816 7.54818 4.44372 7.07127 4.44372 6.574C4.44372 6.07673 4.26816 5.59982 3.95565 5.2482C3.64315 4.89657 3.2193 4.69903 2.77735 4.69903ZM6.58181e-05 6.574C6.58181e-05 5.74521 0.292672 4.95037 0.813514 4.36433C1.33436 3.77829 2.04077 3.44905 2.77735 3.44905C3.51393 3.44905 4.22035 3.77829 4.74119 4.36433C5.26203 4.95037 5.55464 5.74521 5.55464 6.574C5.55464 7.40279 5.26203 8.19763 4.74119 8.78367C4.22035 9.36972 3.51393 9.69895 2.77735 9.69895C2.04077 9.69895 1.33436 9.36972 0.813514 8.78367C0.292672 8.19763 6.58181e-05 7.40279 6.58181e-05 6.574ZM7.22101 9.69895C6.77906 9.69895 6.35521 9.89649 6.04271 10.2481C5.7302 10.5997 5.55464 11.0766 5.55464 11.5739V15.9488C5.55464 17.2749 6.02281 18.5467 6.85615 19.4843C7.6895 20.422 8.81976 20.9488 9.99829 20.9488C11.1768 20.9488 12.3071 20.422 13.1404 19.4843C13.9738 18.5467 14.442 17.2749 14.442 15.9488V11.5739C14.442 11.0766 14.2664 10.5997 13.9539 10.2481C13.6414 9.89649 13.2175 9.69895 12.7756 9.69895H7.22101ZM6.66555 11.5739C6.66555 11.4082 6.72407 11.2492 6.82824 11.132C6.93241 11.0148 7.07369 10.9489 7.22101 10.9489H12.7756C12.9229 10.9489 13.0642 11.0148 13.1683 11.132C13.2725 11.2492 13.331 11.4082 13.331 11.5739V15.9488C13.331 16.9434 12.9799 17.8972 12.3549 18.6005C11.7299 19.3037 10.8822 19.6988 9.99829 19.6988C9.1144 19.6988 8.2667 19.3037 7.64169 18.6005C7.01668 17.8972 6.66555 16.9434 6.66555 15.9488V11.5739Z" fill="#C3CDD3"/>
</svg>
