<svg width="22" height="23" viewBox="0 0 22 23" fill="none" xmlns="http://www.w3.org/2000/svg">
<path d="M20.5454 17.2698C19.8084 16.4751 17.9985 15.2904 17.1173 14.8078C15.9696 14.18 15.8752 14.1287 14.9342 14.7793C14.3066 15.2136 13.8858 15.6062 13.1746 15.4291C12.4633 15.252 10.9358 14.3376 9.61875 12.9325C8.30173 11.5274 7.44463 9.89456 7.3156 9.17537C7.18658 8.45618 7.61347 8.06806 8.08503 7.46981C8.74964 6.62655 8.70648 6.48077 8.20318 5.29478C7.8107 4.37231 6.71824 2.50249 5.97234 1.71713C5.17454 0.873722 5.16964 1.01786 4.63021 1.22081C4.19096 1.38825 3.76799 1.5956 3.3666 1.84026C2.58044 2.32488 2.13934 2.73464 1.81929 3.36209C1.49923 3.98954 1.31439 5.47973 2.76027 8.33131C4.20615 11.1829 5.23866 12.6509 7.40057 14.9583C9.56247 17.2656 11.2424 18.5238 13.7099 20.0199C16.7625 21.8683 17.9676 21.5691 18.6172 21.293C19.2669 21.0168 19.7075 20.6085 20.2453 19.8571C20.5173 19.4739 20.7534 19.0665 20.9505 18.64C21.1901 18.1176 21.3342 18.1225 20.5454 17.2698Z" stroke="#C3CDD3" stroke-width="1.5" stroke-miterlimit="10"/>
</svg>
