<svg width="22" height="22" viewBox="0 0 22 22" fill="none" xmlns="http://www.w3.org/2000/svg">
<path d="M20.4931 6.13362L19.9864 5.27766C19.6039 4.6297 19.4121 4.30571 19.0859 4.17672C18.7608 4.04673 18.3925 4.14972 17.6551 4.35271L16.4038 4.69669C15.933 4.80269 15.4396 4.74269 15.0109 4.5267L14.6652 4.33271C14.297 4.10264 14.0138 3.76384 13.857 3.36576L13.5144 2.36781C13.2888 1.70784 13.176 1.37786 12.9083 1.18987C12.6406 0.999878 12.2836 0.999878 11.5718 0.999878H10.4282C9.71637 0.999878 9.36046 0.999878 9.09173 1.18987C8.82403 1.37786 8.71223 1.70784 8.48659 2.36781L8.14401 3.36576C7.98696 3.76398 7.70339 4.1028 7.33475 4.33271L6.9891 4.5277C6.56037 4.74269 6.06599 4.80269 5.59624 4.69769L4.34491 4.35271C3.60745 4.14972 3.23924 4.04773 2.9141 4.17672C2.58793 4.30571 2.39613 4.6297 2.01356 5.27666L1.5079 6.13362C1.14891 6.74159 0.96942 7.04458 1.00429 7.36756C1.03917 7.69154 1.27917 7.95153 1.75919 8.4725L2.81666 9.62545C3.07513 9.94443 3.25872 10.5004 3.25872 11.0004C3.25872 11.5004 3.07513 12.0563 2.81769 12.3753L1.75919 13.5273C1.27917 14.0482 1.03917 14.3092 1.00429 14.6322C0.96942 14.9552 1.14789 15.2592 1.50687 15.8661L2.01356 16.7231C2.39613 17.3701 2.58793 17.694 2.9141 17.823C3.24026 17.952 3.60745 17.851 4.34491 17.647L5.59624 17.3031C6.06691 17.198 6.5605 17.2582 6.99013 17.4731L7.33475 17.667C7.704 17.897 7.98708 18.237 8.14298 18.635L8.48556 19.6319C8.71121 20.2919 8.82403 20.6219 9.09173 20.8119C9.36046 20.9999 9.71637 20.9999 10.4282 20.9999H11.5718C12.2836 20.9999 12.6406 20.9999 12.9083 20.8109C13.176 20.6219 13.2888 20.2919 13.5134 19.6319L13.857 18.635C14.0129 18.236 14.296 17.897 14.6652 17.667L15.0099 17.4731C15.4407 17.2581 15.933 17.1971 16.4048 17.3031L17.6561 17.647C18.3925 17.851 18.7608 17.953 19.0859 17.824C19.4121 17.694 19.6039 17.3701 19.9864 16.7231L20.4921 15.8661C20.8511 15.2592 21.0306 14.9562 20.9957 14.6322C20.9608 14.3082 20.7208 14.0482 20.2408 13.5273L19.1833 12.3753C18.9249 12.0553 18.7413 11.5004 18.7413 11.0004C18.7413 10.5004 18.9249 9.94443 19.1823 9.62545L20.2408 8.4725C20.7208 7.95253 20.9608 7.69154 20.9957 7.36756C21.0306 7.04358 20.8521 6.74159 20.4931 6.13362Z" stroke="#C3CDD3" stroke-width="1.5" stroke-linecap="round" stroke-linejoin="round"/>
<path d="M14.5459 10.993C14.5459 11.9212 14.1677 12.8114 13.4945 13.4677C12.8213 14.1241 11.9082 14.4928 10.9561 14.4928C10.004 14.4928 9.09088 14.1241 8.41766 13.4677C7.74443 12.8114 7.36621 11.9212 7.36621 10.993C7.36621 10.0648 7.74443 9.17458 8.41766 8.51824C9.09088 7.86189 10.004 7.49316 10.9561 7.49316C11.9082 7.49316 12.8213 7.86189 13.4945 8.51824C14.1677 9.17458 14.5459 10.0648 14.5459 10.993Z" stroke="#C3CDD3" stroke-width="1.5" stroke-linecap="round" stroke-linejoin="round"/>
</svg>
