<svg width="26" height="26" viewBox="0 0 26 26" fill="none" xmlns="http://www.w3.org/2000/svg">
<path d="M12.6653 24.9491H12.6429C11.0229 24.9044 9.4587 24.5354 7.99507 23.8645C7.89517 23.8191 7.80519 23.7544 7.73032 23.6742C7.65544 23.594 7.59712 23.4997 7.55871 23.3969C7.52031 23.294 7.50257 23.1846 7.50651 23.0749C7.51045 22.9652 7.53599 22.8573 7.58168 22.7575C7.77161 22.3326 8.27439 22.1537 8.68778 22.3437C9.9503 22.9252 11.291 23.2271 12.6876 23.2718C13.1457 23.283 13.5144 23.6744 13.5032 24.1328C13.4921 24.5913 13.1234 24.9491 12.6653 24.9491ZM17.045 24.1887C16.7098 24.1887 16.397 23.9875 16.2629 23.652C16.0953 23.2159 16.3076 22.7351 16.7433 22.5674C18.0394 22.0642 19.2013 21.315 20.1957 20.3422C20.5309 20.0179 21.056 20.0291 21.38 20.3646C21.704 20.7 21.6929 21.2256 21.3577 21.5498C20.2076 22.6717 18.8435 23.5502 17.3467 24.1328C17.2461 24.1776 17.1456 24.1887 17.045 24.1887ZM4.75497 21.3262C4.53151 21.3262 4.30806 21.2367 4.14047 21.0578C3.04554 19.8614 2.21875 18.486 1.67129 16.9653C1.63022 16.861 1.61047 16.7495 1.6132 16.6374C1.61594 16.5253 1.64111 16.4149 1.68722 16.3127C1.73333 16.2105 1.79945 16.1186 1.88167 16.0424C1.96389 15.9663 2.06053 15.9074 2.16589 15.8692C2.27125 15.8311 2.38317 15.8145 2.49506 15.8204C2.60694 15.8263 2.7165 15.8546 2.81726 15.9036C2.91802 15.9526 3.00794 16.0214 3.08169 16.1058C3.15544 16.1902 3.21154 16.2886 3.24665 16.395C3.71286 17.6989 4.43459 18.8964 5.36947 19.9173C5.68231 20.2527 5.65996 20.7895 5.31361 21.1026C5.15719 21.2479 4.94491 21.3262 4.7438 21.3262H4.75497ZM23.2794 18.117C23.1414 18.1167 23.0057 18.0823 22.8842 18.0169C22.7627 17.9515 22.6593 17.8571 22.583 17.742C22.5067 17.627 22.46 17.4949 22.447 17.3574C22.434 17.22 22.4551 17.0814 22.5085 16.9541C23.0448 15.6794 23.3241 14.3264 23.3241 12.9287C23.3241 12.4702 23.704 12.09 24.162 12.09C24.6201 12.09 25 12.4702 25 12.9287C25 14.55 24.6872 16.1267 24.0503 17.6138C23.9162 17.9381 23.6034 18.1282 23.2794 18.1282V18.117ZM1.83888 13.1299H1.79419C1.57247 13.1167 1.36491 13.0165 1.21643 12.8512C1.06796 12.6858 0.990539 12.4686 1.00092 12.2466C1.09031 10.6252 1.5037 9.07096 2.21875 7.62851C2.41986 7.21478 2.92264 7.04706 3.33603 7.24833C3.74942 7.4496 3.91701 7.95278 3.7159 8.36651C3.10379 9.60534 2.75025 10.956 2.67684 12.336C2.65449 12.7833 2.28579 13.1299 1.83888 13.1299ZM23.7151 10.6252C23.3576 10.6252 23.0224 10.3904 22.9107 10.0214C22.5182 8.69412 21.8648 7.45862 20.989 6.38733C20.8501 6.21311 20.7851 5.99124 20.8081 5.76953C20.8311 5.54782 20.9402 5.34402 21.1119 5.20206C21.286 5.06302 21.5077 4.998 21.7292 5.02101C21.9507 5.04402 22.1543 5.15321 22.2962 5.32506C23.3241 6.57742 24.0727 7.99751 24.5196 9.55178C24.557 9.6768 24.5646 9.80887 24.5417 9.93736C24.5188 10.0658 24.4662 10.1872 24.3879 10.2916C24.3097 10.396 24.208 10.4806 24.0912 10.5385C23.9743 10.5965 23.8455 10.6262 23.7151 10.6252ZM5.68231 5.31388C5.44768 5.31388 5.21305 5.21324 5.04546 5.02315C4.97334 4.93956 4.91842 4.84254 4.88386 4.73765C4.84931 4.63276 4.8358 4.52207 4.8441 4.41193C4.85241 4.3018 4.88237 4.1944 4.93226 4.09589C4.98215 3.99737 5.051 3.9097 5.13484 3.83788C6.35267 2.77562 7.76044 1.98171 9.29111 1.48971C9.72684 1.34435 10.2073 1.59035 10.3413 2.02644C10.4866 2.46253 10.2408 2.94334 9.80505 3.08871C8.48667 3.51361 7.28001 4.1957 6.22977 5.11261C6.07335 5.24679 5.87224 5.31388 5.68231 5.31388ZM18.207 3.88261C18.0702 3.8824 17.9358 3.84779 17.8159 3.78198C16.5869 3.13343 15.2685 2.74207 13.8831 2.61907C13.6626 2.59917 13.4589 2.49275 13.3166 2.32304C13.1742 2.15333 13.1048 1.93414 13.1234 1.71335C13.1681 1.25489 13.5703 0.908257 14.0284 0.952984C15.6372 1.08717 17.1791 1.54562 18.6092 2.2948C19.0226 2.50725 19.1678 3.02161 18.9555 3.42416C18.8103 3.7037 18.5198 3.87143 18.2181 3.87143L18.207 3.88261Z" fill="black" stroke="#C3CDD3" stroke-width="1.5" stroke-linecap="round" stroke-linejoin="round"/>
</svg>
